<svg width="73" height="88" viewBox="0 0 73 88" fill="none" xmlns="http://www.w3.org/2000/svg">
<path d="M21.8027 0.473512C18.7705 0.0181306 15.3296 -0.502788 11.3261 0.980534C10.1904 1.39815 6.39301 2.947 3.55299 6.89494C2.89102 7.81459 1.28552 10.2464 0.511374 14.6681C-1.17354 24.2811 2.52506 35.0347 7.94632 41.5361C13.889 48.6662 14.5366 49.3093 14.5366 49.3093C16.0715 50.8348 17.2028 52.7219 18.5917 54.3785C18.8921 54.74 19.5069 55.4675 19.7746 56.5754C20.07 57.8055 19.784 58.8706 19.6057 59.4482C18.5545 62.8041 15.7239 66.3905 14.3672 69.5871C13.9823 70.4928 11.8887 75.6847 14.029 80.8522C14.3855 81.7158 15.6389 84.6263 18.7605 86.485C21.5772 88.1611 24.3556 88.0528 26.3082 87.9495C31.0586 87.7007 34.9027 85.8514 38.3625 83.6689C41.5168 81.6786 52.4254 74.5907 58.753 60.7999C60.8466 56.2377 61.8557 52.2193 63.0336 47.5066C63.7938 44.465 64.3431 41.6394 64.3853 38.1563C64.4369 33.5225 63.9171 31.109 61.0193 27.3299C54.8739 19.3152 31.6978 1.9574 21.8027 0.474081V0.473512Z" fill="#8C52FF"/>
<path d="M66.9204 20.2461C70.0936 20.2461 72.666 17.6737 72.666 14.5005C72.666 11.3273 70.0936 8.75488 66.9204 8.75488C63.7472 8.75488 61.1748 11.3273 61.1748 14.5005C61.1748 17.6737 63.7472 20.2461 66.9204 20.2461Z" fill="#8C52FF"/>
</svg>
